<?xml version="1.0" encoding="utf-8"?>
<!-- Generator: Adobe Illustrator 16.0.0, SVG Export Plug-In . SVG Version: 6.00 Build 0)  -->
<!DOCTYPE svg PUBLIC "-//W3C//DTD SVG 1.1 Basic//EN" "http://www.w3.org/Graphics/SVG/1.1/DTD/svg11-basic.dtd">
<svg version="1.1" baseProfile="basic" id="Слой_1"
	 xmlns="http://www.w3.org/2000/svg" xmlns:xlink="http://www.w3.org/1999/xlink" x="0px" y="0px" width="150px" height="150px"
	 viewBox="0 0 150 150" xml:space="preserve">
<g>
	<path fill="#484F59" d="M105.198,87.376c0.01,1.283,0.021,2.511,0.031,3.598c0.01,2.201,0.024,5.215-11.716,10.911
		c-6.746,3.277-12.798,5.561-18.453,6.958c-5.658-1.283-11.753-3.448-18.582-6.599c-11.844-5.468-11.89-8.485-11.922-10.654
		c-0.01-1.042-0.021-2.285-0.03-3.605l28.527,10.499l2.152,0.792l2.133-0.846L105.198,87.376 M111.124,78.569L75.126,92.853
		L38.459,79.357c0.033,3.389,0.065,8.901,0.098,12.289c0.089,5.891,3.036,10.334,15.407,16.045
		c7.357,3.395,14.393,5.909,21.136,7.299V115c0.007-0.002,0.015-0.004,0.021-0.005c0.008,0.001,0.016,0.003,0.023,0.005v-0.011
		c6.714-1.521,13.702-4.167,20.991-7.708c12.257-5.946,15.121-10.444,15.094-16.336C111.194,87.294,111.16,82.224,111.124,78.569
		L111.124,78.569z"/>
	<path fill="#484F59" d="M74.474,48.098l51.799,19.42L74.858,87.93L23.062,68.514L74.474,48.098 M74.412,41.667L6.398,68.675
		L74.921,94.36l68.016-27.002L74.412,41.667L74.412,41.667z"/>
	<path fill="none" stroke="#484F59" stroke-width="6" stroke-linecap="round" stroke-miterlimit="10" d="M73.984,61.504
		l43.654,16.368l0.162,16.786"/>
	<path fill="#484F59" d="M74.758,57.263c-0.05,0-0.1,0-0.149,0.001c-4.131,0.04-7.459,1.761-7.438,3.851
		c0.021,2.068,3.306,3.717,7.371,3.717c0.047,0,0.094,0,0.141,0c4.128-0.039,7.462-1.764,7.442-3.86
		C82.104,58.909,78.819,57.263,74.758,57.263L74.758,57.263z"/>
	<path fill="#484F59" d="M118.219,95.46c-2.158,0-3.909,1.752-3.909,3.91v9.677h7.819V99.37
		C122.129,97.212,120.378,95.46,118.219,95.46L118.219,95.46z"/>
</g>
<line fill="none" stroke="#484F59" stroke-width="6" stroke-linecap="round" stroke-miterlimit="10" x1="75.126" y1="92.853" x2="75.126" y2="109.047"/>
</svg>
