<?xml version="1.0" encoding="utf-8"?>
<!-- Generator: Adobe Illustrator 16.0.0, SVG Export Plug-In . SVG Version: 6.00 Build 0)  -->
<!DOCTYPE svg PUBLIC "-//W3C//DTD SVG 1.1//EN" "http://www.w3.org/Graphics/SVG/1.1/DTD/svg11.dtd">
<svg version="1.1" id="Слой_1" xmlns="http://www.w3.org/2000/svg" xmlns:xlink="http://www.w3.org/1999/xlink" x="0px" y="0px"
	 width="400px" height="400px" viewBox="0 0 400 400" enable-background="new 0 0 400 400" xml:space="preserve">
<path fill="#B7BEC0" stroke="#484F59" stroke-width="6" stroke-linejoin="round" d="M154.253,211.232V36.286
	c0-14.852-12.034-26.886-26.882-26.886H27.269L10.87,32.146v179.086H154.253z"/>
<path fill="#B7BEC0" stroke="#484F59" stroke-width="6" stroke-linejoin="round" d="M154.265,211.232V36.286
	c0-14.852,12.042-26.886,26.887-26.886h99.589l16.909,22.746v179.086H154.265z"/>
<g>
	<g>
		
			<path fill="#FFFFFF" stroke="#484F59" stroke-width="7" stroke-linecap="round" stroke-linejoin="round" stroke-miterlimit="10" d="
			M27.928,9.36v178.562h99.442c14.848,0,26.882,9.203,26.882,24.051h0.012c0-14.848,12.042-24.051,26.887-24.051h100.248V10.287
			h-102.9c0,0-25.123,7.032-25.123,25.123S159.188,9.36,128.344,9.36S27.928,9.36,27.928,9.36z"/>
	</g>
</g>
<line fill="none" stroke="#484F59" stroke-width="3" stroke-miterlimit="10" x1="9.67" y1="210.265" x2="28.354" y2="188.333"/>
<line fill="none" stroke="#484F59" stroke-width="7" stroke-linecap="round" stroke-linejoin="round" stroke-miterlimit="10" x1="48.511" y1="122.798" x2="129.36" y2="122.798"/>
<line fill="none" stroke="#484F59" stroke-width="7" stroke-linecap="round" stroke-linejoin="round" stroke-miterlimit="10" x1="48.511" y1="141.495" x2="129.36" y2="141.495"/>
<line fill="none" stroke="#484F59" stroke-width="7" stroke-linecap="round" stroke-linejoin="round" stroke-miterlimit="10" x1="48.511" y1="160.195" x2="129.36" y2="160.195"/>
<line fill="none" stroke="#484F59" stroke-width="7" stroke-linecap="round" stroke-linejoin="round" stroke-miterlimit="10" x1="178.499" y1="122.798" x2="259.345" y2="122.798"/>
<line fill="none" stroke="#484F59" stroke-width="7" stroke-linecap="round" stroke-linejoin="round" stroke-miterlimit="10" x1="178.499" y1="141.495" x2="259.345" y2="141.495"/>
<line fill="none" stroke="#484F59" stroke-width="7" stroke-linecap="round" stroke-linejoin="round" stroke-miterlimit="10" x1="178.499" y1="160.195" x2="259.345" y2="160.195"/>
<path fill="none" stroke="#484F59" stroke-width="7" stroke-linecap="round" stroke-linejoin="round" stroke-miterlimit="10" d="
	M297.649,68.291h77.829c9.5,0,17.2,7.701,17.2,17.205l0,0c0,9.496-7.7,17.197-17.2,17.197h-39.221"/>
<path fill="none" stroke="#484F59" stroke-width="7" stroke-linecap="round" stroke-linejoin="round" stroke-miterlimit="10" d="
	M331.955,145.697c-11.88,0-21.502-9.619-21.502-21.502l0,0c0-11.873,9.622-21.503,21.502-21.503h17.201"/>
<path fill="none" stroke="#484F59" stroke-width="7" stroke-linecap="round" stroke-linejoin="round" stroke-miterlimit="10" d="
	M331.829,145.689c13.447,0,24.345,10.897,24.345,24.341v72.892"/>
<line fill="none" stroke="#484F59" stroke-width="7" stroke-linecap="round" stroke-linejoin="round" stroke-miterlimit="10" x1="48.511" y1="39.921" x2="96.51" y2="39.921"/>
<line fill="none" stroke="#484F59" stroke-width="7" stroke-linecap="round" stroke-linejoin="round" stroke-miterlimit="10" x1="48.511" y1="66.709" x2="129.36" y2="66.709"/>
<line fill="none" stroke="#484F59" stroke-width="7" stroke-linecap="round" stroke-linejoin="round" stroke-miterlimit="10" x1="48.511" y1="85.405" x2="129.36" y2="85.405"/>
<line fill="none" stroke="#484F59" stroke-width="7" stroke-linecap="round" stroke-linejoin="round" stroke-miterlimit="10" x1="48.511" y1="104.102" x2="129.36" y2="104.102"/>
<rect x="183.374" y="39.688" fill="#7BBA52" stroke="#484F59" stroke-width="7" stroke-linecap="round" stroke-linejoin="round" width="72.032" height="64.99"/>
<line fill="none" stroke="#484F59" stroke-width="3" stroke-miterlimit="10" x1="298.612" y1="210.265" x2="279.928" y2="188.333"/>
<path fill="#B7BEC0" stroke="#484F59" stroke-width="6" stroke-linecap="round" stroke-linejoin="round" d="M398.185,389.013
	c0,3.047-2.471,5.514-5.514,5.514H61.9c-3.035,0-5.51-2.467-5.51-5.514V245.681c0-3.047,2.475-5.51,5.51-5.51h330.771
	c3.043,0,5.514,2.463,5.514,5.51V389.013z"/>
<g>
	
		<line fill="#B7BEC0" stroke="#484F59" stroke-width="6" stroke-linecap="round" stroke-linejoin="round" x1="73.792" y1="267.215" x2="95.666" y2="267.215"/>
	
		<line fill="#B7BEC0" stroke="#484F59" stroke-width="6" stroke-linecap="round" stroke-linejoin="round" x1="105.431" y1="267.215" x2="127.304" y2="267.215"/>
	
		<line fill="#B7BEC0" stroke="#484F59" stroke-width="6" stroke-linecap="round" stroke-linejoin="round" x1="137.073" y1="267.215" x2="158.943" y2="267.215"/>
	
		<line fill="#B7BEC0" stroke="#484F59" stroke-width="6" stroke-linecap="round" stroke-linejoin="round" x1="168.711" y1="267.215" x2="190.585" y2="267.215"/>
	
		<line fill="#B7BEC0" stroke="#484F59" stroke-width="6" stroke-linecap="round" stroke-linejoin="round" x1="200.35" y1="267.215" x2="222.224" y2="267.215"/>
	
		<line fill="#B7BEC0" stroke="#484F59" stroke-width="6" stroke-linecap="round" stroke-linejoin="round" x1="231.996" y1="267.215" x2="253.866" y2="267.215"/>
	
		<line fill="#B7BEC0" stroke="#484F59" stroke-width="6" stroke-linecap="round" stroke-linejoin="round" x1="263.635" y1="267.215" x2="285.504" y2="267.215"/>
	
		<line fill="#B7BEC0" stroke="#484F59" stroke-width="6" stroke-linecap="round" stroke-linejoin="round" x1="295.269" y1="267.215" x2="317.139" y2="267.215"/>
	
		<line fill="#B7BEC0" stroke="#484F59" stroke-width="6" stroke-linecap="round" stroke-linejoin="round" x1="326.911" y1="267.215" x2="348.781" y2="267.215"/>
	
		<line fill="#B7BEC0" stroke="#484F59" stroke-width="6" stroke-linecap="round" stroke-linejoin="round" x1="358.55" y1="267.215" x2="380.424" y2="267.215"/>
</g>
<g>
	
		<line fill="#B7BEC0" stroke="#484F59" stroke-width="6" stroke-linecap="round" stroke-linejoin="round" x1="73.792" y1="292.696" x2="95.666" y2="292.696"/>
	
		<line fill="#B7BEC0" stroke="#484F59" stroke-width="6" stroke-linecap="round" stroke-linejoin="round" x1="105.431" y1="292.696" x2="127.304" y2="292.696"/>
	
		<line fill="#B7BEC0" stroke="#484F59" stroke-width="6" stroke-linecap="round" stroke-linejoin="round" x1="137.073" y1="292.696" x2="158.943" y2="292.696"/>
	
		<line fill="#B7BEC0" stroke="#484F59" stroke-width="6" stroke-linecap="round" stroke-linejoin="round" x1="168.711" y1="292.696" x2="190.585" y2="292.696"/>
	
		<line fill="#B7BEC0" stroke="#484F59" stroke-width="6" stroke-linecap="round" stroke-linejoin="round" x1="200.35" y1="292.696" x2="222.224" y2="292.696"/>
	
		<line fill="#B7BEC0" stroke="#484F59" stroke-width="6" stroke-linecap="round" stroke-linejoin="round" x1="231.996" y1="292.696" x2="253.866" y2="292.696"/>
	
		<line fill="#B7BEC0" stroke="#484F59" stroke-width="6" stroke-linecap="round" stroke-linejoin="round" x1="263.635" y1="292.696" x2="285.504" y2="292.696"/>
	
		<line fill="#B7BEC0" stroke="#484F59" stroke-width="6" stroke-linecap="round" stroke-linejoin="round" x1="295.269" y1="292.696" x2="317.139" y2="292.696"/>
	
		<line fill="#B7BEC0" stroke="#484F59" stroke-width="6" stroke-linecap="round" stroke-linejoin="round" x1="326.911" y1="292.696" x2="348.781" y2="292.696"/>
	
		<line fill="#B7BEC0" stroke="#484F59" stroke-width="6" stroke-linecap="round" stroke-linejoin="round" x1="358.55" y1="292.696" x2="380.424" y2="292.696"/>
</g>
<g>
	
		<line fill="#B7BEC0" stroke="#484F59" stroke-width="6" stroke-linecap="round" stroke-linejoin="round" x1="73.792" y1="318.186" x2="95.666" y2="318.186"/>
	
		<line fill="#B7BEC0" stroke="#484F59" stroke-width="6" stroke-linecap="round" stroke-linejoin="round" x1="105.431" y1="318.186" x2="127.304" y2="318.186"/>
	
		<line fill="#B7BEC0" stroke="#484F59" stroke-width="6" stroke-linecap="round" stroke-linejoin="round" x1="137.073" y1="318.186" x2="158.943" y2="318.186"/>
	
		<line fill="#B7BEC0" stroke="#484F59" stroke-width="6" stroke-linecap="round" stroke-linejoin="round" x1="168.711" y1="318.186" x2="190.585" y2="318.186"/>
	
		<line fill="#B7BEC0" stroke="#484F59" stroke-width="6" stroke-linecap="round" stroke-linejoin="round" x1="200.35" y1="318.186" x2="222.224" y2="318.186"/>
	
		<line fill="#B7BEC0" stroke="#484F59" stroke-width="6" stroke-linecap="round" stroke-linejoin="round" x1="231.996" y1="318.186" x2="253.866" y2="318.186"/>
	
		<line fill="#B7BEC0" stroke="#484F59" stroke-width="6" stroke-linecap="round" stroke-linejoin="round" x1="263.635" y1="318.186" x2="285.504" y2="318.186"/>
	
		<line fill="#B7BEC0" stroke="#484F59" stroke-width="6" stroke-linecap="round" stroke-linejoin="round" x1="295.269" y1="318.186" x2="317.139" y2="318.186"/>
	
		<line fill="#B7BEC0" stroke="#484F59" stroke-width="6" stroke-linecap="round" stroke-linejoin="round" x1="326.911" y1="318.186" x2="348.781" y2="318.186"/>
	
		<line fill="#B7BEC0" stroke="#484F59" stroke-width="6" stroke-linecap="round" stroke-linejoin="round" x1="358.55" y1="318.186" x2="380.424" y2="318.186"/>
</g>
<g>
	
		<line fill="#B7BEC0" stroke="#484F59" stroke-width="6" stroke-linecap="round" stroke-linejoin="round" x1="73.792" y1="343.67" x2="95.666" y2="343.67"/>
	
		<line fill="#B7BEC0" stroke="#484F59" stroke-width="6" stroke-linecap="round" stroke-linejoin="round" x1="105.431" y1="343.67" x2="127.304" y2="343.67"/>
	
		<line fill="#B7BEC0" stroke="#484F59" stroke-width="6" stroke-linecap="round" stroke-linejoin="round" x1="137.073" y1="343.67" x2="158.943" y2="343.67"/>
	
		<line fill="#B7BEC0" stroke="#484F59" stroke-width="6" stroke-linecap="round" stroke-linejoin="round" x1="168.711" y1="343.67" x2="190.585" y2="343.67"/>
	
		<line fill="#B7BEC0" stroke="#484F59" stroke-width="6" stroke-linecap="round" stroke-linejoin="round" x1="200.35" y1="343.67" x2="222.224" y2="343.67"/>
	
		<line fill="#B7BEC0" stroke="#484F59" stroke-width="6" stroke-linecap="round" stroke-linejoin="round" x1="231.996" y1="343.67" x2="253.866" y2="343.67"/>
	
		<line fill="#B7BEC0" stroke="#484F59" stroke-width="6" stroke-linecap="round" stroke-linejoin="round" x1="263.635" y1="343.67" x2="285.504" y2="343.67"/>
	
		<line fill="#B7BEC0" stroke="#484F59" stroke-width="6" stroke-linecap="round" stroke-linejoin="round" x1="295.269" y1="343.67" x2="317.139" y2="343.67"/>
	
		<line fill="#B7BEC0" stroke="#484F59" stroke-width="6" stroke-linecap="round" stroke-linejoin="round" x1="326.911" y1="343.67" x2="348.781" y2="343.67"/>
	
		<line fill="#B7BEC0" stroke="#484F59" stroke-width="6" stroke-linecap="round" stroke-linejoin="round" x1="358.55" y1="343.67" x2="380.424" y2="343.67"/>
</g>
<g>
	
		<line fill="#B7BEC0" stroke="#484F59" stroke-width="6" stroke-linecap="round" stroke-linejoin="round" x1="73.792" y1="369.147" x2="95.666" y2="369.147"/>
	
		<line fill="#B7BEC0" stroke="#484F59" stroke-width="6" stroke-linecap="round" stroke-linejoin="round" x1="105.431" y1="369.147" x2="127.304" y2="369.147"/>
	
		<line fill="#B7BEC0" stroke="#484F59" stroke-width="6" stroke-linecap="round" stroke-linejoin="round" x1="137.073" y1="369.147" x2="158.943" y2="369.147"/>
	
		<line fill="#B7BEC0" stroke="#484F59" stroke-width="6" stroke-linecap="round" stroke-linejoin="round" x1="168.711" y1="369.147" x2="285.797" y2="369.147"/>
	
		<line fill="#B7BEC0" stroke="#484F59" stroke-width="6" stroke-linecap="round" stroke-linejoin="round" x1="295.269" y1="369.147" x2="317.139" y2="369.147"/>
	
		<line fill="#B7BEC0" stroke="#484F59" stroke-width="6" stroke-linecap="round" stroke-linejoin="round" x1="326.911" y1="369.147" x2="348.781" y2="369.147"/>
	
		<line fill="#B7BEC0" stroke="#484F59" stroke-width="6" stroke-linecap="round" stroke-linejoin="round" x1="358.55" y1="369.147" x2="380.424" y2="369.147"/>
</g>
</svg>
