<?xml version="1.0" encoding="utf-8"?>
<!-- Generator: Adobe Illustrator 16.0.0, SVG Export Plug-In . SVG Version: 6.00 Build 0)  -->
<!DOCTYPE svg PUBLIC "-//W3C//DTD SVG 1.1 Basic//EN" "http://www.w3.org/Graphics/SVG/1.1/DTD/svg11-basic.dtd">
<svg version="1.1" baseProfile="basic" id="Слой_1"
	 xmlns="http://www.w3.org/2000/svg" xmlns:xlink="http://www.w3.org/1999/xlink" x="0px" y="0px" width="150px" height="150px"
	 viewBox="0 0 150 150" xml:space="preserve">
<g>
	<path fill="#484F59" d="M107.527,73.441c0.012,1.545,0.024,3.028,0.037,4.323c0.012,2.424,0.027,5.744-12.6,11.869
		c-7.197,3.496-13.651,5.928-19.684,7.412c-6.037-1.361-12.537-3.668-19.822-7.027c-12.738-5.883-12.789-9.203-12.825-11.596
		c-0.012-1.236-0.024-2.741-0.036-4.327l30.677,11.292l2.153,0.791l2.132-0.846L107.527,73.441 M113.454,64.635L75.347,79.757
		L36.531,65.47c0.034,3.586,0.068,9.423,0.103,13.01c0.095,6.236,3.215,10.939,16.311,16.986c7.788,3.592,15.236,6.254,22.374,7.725
		v0.012c0.008-0.002,0.016-0.006,0.022-0.006c0.009,0,0.017,0.004,0.024,0.006v-0.012c7.107-1.611,14.506-4.412,22.222-8.16
		c12.976-6.295,16.007-11.055,15.978-17.293C113.527,73.871,113.492,68.503,113.454,64.635L113.454,64.635z"/>
	<path fill="#484F59" d="M74.652,26.331l55.813,20.926L75.066,69.252L19.256,48.33L74.652,26.331 M74.591,19.9L2.592,48.491
		l72.537,27.193l72.001-28.587L74.591,19.9L74.591,19.9z"/>
	<path fill="none" stroke="#484F59" stroke-width="6" stroke-linecap="round" stroke-miterlimit="10" d="M74.139,40.899
		l46.211,17.327l0.172,17.772"/>
	<path fill="#484F59" d="M74.957,36.41c-0.053,0-0.105,0-0.158,0.001c-4.373,0.042-7.896,1.863-7.875,4.076
		c0.023,2.189,3.5,3.936,7.803,3.936c0.05,0,0.1-0.001,0.149-0.001c4.369-0.042,7.899-1.867,7.878-4.086
		C82.734,38.152,79.256,36.41,74.957,36.41L74.957,36.41z"/>
	<path fill="#484F59" d="M120.964,82.517c-2.285,0-4.138,1.855-4.138,4.139v10.244h8.277V86.655
		C125.104,84.372,123.25,82.517,120.964,82.517L120.964,82.517z"/>
</g>
<line fill="none" stroke="#484F59" stroke-width="6" stroke-linecap="round" stroke-miterlimit="10" x1="75.347" y1="82.591" x2="75.347" y2="99.733"/>
<polygon fill="#7BBA52" stroke="#484F59" stroke-width="7" stroke-miterlimit="10" points="81.124,131.963 74.917,128.739 
	68.55,131.963 68.55,113.373 81.124,113.373 "/>
<circle fill="#7BBA52" stroke="#484F59" stroke-width="7" stroke-miterlimit="10" cx="74.837" cy="106.251" r="11.786"/>
</svg>
