<?xml version="1.0" encoding="utf-8"?>
<!-- Generator: Adobe Illustrator 16.0.0, SVG Export Plug-In . SVG Version: 6.00 Build 0)  -->
<!DOCTYPE svg PUBLIC "-//W3C//DTD SVG 1.1 Basic//EN" "http://www.w3.org/Graphics/SVG/1.1/DTD/svg11-basic.dtd">
<svg version="1.1" baseProfile="basic" id="Слой_1"
	 xmlns="http://www.w3.org/2000/svg" xmlns:xlink="http://www.w3.org/1999/xlink" x="0px" y="0px" width="150px" height="150px"
	 viewBox="0 0 150 150" xml:space="preserve">
<g>
	<path fill="#7BBA52" stroke="#484F59" stroke-width="7" stroke-linecap="round" stroke-linejoin="round" d="M100.536,98.274
		c0,0-5.54-8.292-10.894-11.362c-0.428-0.251-0.875-0.49-1.33-0.737c0,0-0.614-0.313-0.848-0.432
		c-0.646-0.317-1.318-0.636-1.995-0.935l-0.724-0.313l-0.413-0.157l-1.551-0.663l-0.317,1.648l-0.056,0.204
		c-0.041,0.197-0.102,0.393-0.157,0.593l-0.098,0.366c-0.088,0.333-0.183,0.663-0.304,0.994c-0.075,0.219-0.165,0.431-0.254,0.644
		l-0.096,0.219c-0.143,0.346-0.285,0.688-0.453,1.028c-0.132,0.271-0.285,0.528-0.453,0.834c-0.189,0.334-0.38,0.669-0.586,0.98
		c-0.183,0.275-0.37,0.543-0.566,0.81c-0.223,0.313-0.461,0.629-0.709,0.938c-0.209,0.259-0.438,0.521-0.666,0.771
		c-0.263,0.296-0.54,0.593-0.827,0.893c-0.249,0.243-0.494,0.483-0.755,0.719c-0.305,0.283-0.619,0.561-0.945,0.826
		c-0.276,0.238-0.558,0.462-0.847,0.687c-0.341,0.266-0.688,0.517-1.039,0.766c-0.31,0.213-0.621,0.428-0.937,0.629
		c-0.378,0.243-0.768,0.473-1.145,0.701c-0.338,0.193-0.666,0.388-1.009,0.572c-0.403,0.216-0.825,0.421-1.245,0.625l-0.137,0.066
		c-0.301,0.149-0.611,0.296-0.938,0.438c-0.428,0.194-0.872,0.373-1.34,0.553l-0.18,0.072c-0.311,0.126-0.623,0.245-0.932,0.359
		c-0.479,0.171-0.954,0.315-1.447,0.479l-0.268,0.086c-0.295,0.087-0.592,0.181-0.887,0.266c-0.434,0.124-0.875,0.227-1.31,0.335
		l-0.63,0.146c-0.258,0.064-0.515,0.127-0.774,0.18c-0.456,0.098-0.934,0.177-1.4,0.249l-0.718,0.124
		c-0.231,0.038-0.463,0.082-0.701,0.116c-0.541,0.071-1.101,0.127-1.645,0.167l-0.741,0.078c-0.175,0.019-0.352,0.034-0.523,0.053
		c-1.02,0.062-2.021,0.103-2.993,0.103c-0.969,0-1.974-0.04-2.984-0.103c-0.188-0.019-0.368-0.034-0.545-0.053l-0.439-0.05
		c-0.648-0.055-1.297-0.106-1.929-0.195c-0.232-0.034-0.455-0.072-0.67-0.112l-0.7-0.114c-0.485-0.086-0.977-0.165-1.456-0.263
		c-0.253-0.053-0.509-0.115-0.766-0.18l-0.497-0.124c-0.49-0.11-0.977-0.224-1.448-0.357c-0.287-0.079-0.566-0.173-0.845-0.262
		l-0.41-0.133c-0.451-0.132-0.899-0.281-1.346-0.439c-0.311-0.11-0.63-0.233-0.932-0.355l-0.258-0.104
		c-0.434-0.169-0.854-0.34-1.269-0.521c-0.345-0.153-0.685-0.323-1.063-0.505c-0.424-0.204-0.845-0.409-1.252-0.625
		c-0.343-0.185-0.67-0.386-1.002-0.576c-0.39-0.229-0.77-0.454-1.145-0.697c-0.326-0.201-0.625-0.416-0.936-0.629
		c-0.35-0.251-0.699-0.5-1.035-0.766c-0.3-0.225-0.58-0.454-0.859-0.687c-0.323-0.266-0.635-0.549-0.932-0.818
		c-0.26-0.243-0.517-0.483-0.772-0.739c-0.275-0.289-0.555-0.584-0.825-0.888c-0.221-0.243-0.444-0.505-0.658-0.764
		c-0.254-0.31-0.485-0.621-0.767-1.013c-0.177-0.237-0.345-0.482-0.507-0.735c-0.206-0.321-0.398-0.655-0.592-0.98l-0.076-0.152
		c-0.134-0.229-0.264-0.458-0.372-0.682c-0.168-0.341-0.311-0.683-0.464-1.041l-0.088-0.206c-0.087-0.218-0.183-0.427-0.255-0.646
		c-0.117-0.333-0.206-0.673-0.324-1.091l-0.074-0.253c-0.062-0.203-0.11-0.398-0.159-0.619l-0.057-0.187l-0.342-1.63l-1.534,0.639
		c-0.585,0.237-1.177,0.482-1.74,0.733l-0.141,0.07c-0.563,0.26-1.109,0.529-1.642,0.8l-0.721,0.374
		c-0.324,0.171-0.629,0.346-0.989,0.553c-5.391,3.084-9.576,12.003-9.576,12.003v18.444h96.171V98.274z"/>
	<path fill="#B7BEC0" stroke="#484F59" stroke-width="7" stroke-linejoin="round" d="M22.417,82.966
		c0.502-0.164,1.013-0.327,1.524-0.49c0.188-0.05,0.362-0.112,0.548-0.173c0.571-0.166,1.148-0.329,1.73-0.49
		c0.13-0.038,0.249-0.076,0.375-0.114c0.645-0.169,1.304-0.336,1.97-0.496c0.06-0.019,0.112-0.032,0.169-0.046
		c2.915-0.704,6.005-1.271,9.241-1.696c-0.117-0.848-0.204-1.714-0.204-2.602v-11.16c3.726,3.022,8.479,4.833,13.645,4.833
		c5.18,0,9.91-1.811,13.639-4.833v11.16c0,0.888-0.078,1.754-0.207,2.602c3.246,0.426,6.349,0.999,9.268,1.702
		c0.037,0.008,0.068,0.018,0.105,0.021c0.688,0.175,1.371,0.346,2.04,0.53c0.09,0.022,0.178,0.043,0.264,0.07
		c0.622,0.169,1.236,0.353,1.834,0.531c0.132,0.034,0.249,0.082,0.376,0.114c4.271,1.328,8.051,2.945,11.175,4.81
		c-2.812-18.683-5.617-37.364-8.423-56.045C78.328,13.505,64.84,2.583,51.415,2.583c-13.423,0-26.912,10.923-30.068,28.611
		c-2.805,18.681-5.614,37.363-8.42,56.045c2.551-1.519,5.55-2.887,8.899-4.055C22.023,83.114,22.222,83.042,22.417,82.966z"/>
	<path fill="#F1FAFC" stroke="#484F59" stroke-width="7" stroke-linejoin="round" d="M64.847,79.472
		c0.129-0.854,0.207-1.724,0.207-2.613v-11.16c-3.729,3.022-8.459,4.833-13.639,4.833c-5.166,0-9.919-1.811-13.645-4.833v11.16
		c0,0.89,0.087,1.76,0.213,2.613c-6.514,0.843-12.463,2.285-17.521,4.197c1.026,11.338,14.487,20.323,30.952,20.323
		c16.461,0,29.928-8.985,30.945-20.323C77.302,81.757,71.362,80.314,64.847,79.472z"/>
	<path fill="#FFFFFF" stroke="#484F59" stroke-width="7" stroke-linejoin="round" d="M29.712,34.32v14.511
		c0,11.986,9.718,21.701,21.703,21.701c11.983,0,21.704-9.714,21.704-21.701V34.32C58.652,34.32,44.179,34.32,29.712,34.32z"/>
</g>
<g>
	<path fill="#B7BEC0" stroke="#484F59" stroke-width="6" stroke-linejoin="round" d="M143.816,145.967
		c0.077-1.745,0.423-20.522,0-23.076c0.009-2.767-3.479-5.826-7.806-6.654c-30.252-5.71-54.585-5.71-84.839,0
		c-4.324,0.833-7.811,3.888-7.807,6.654c-0.422,2.554-0.08,20.957,0,23.076H143.816z"/>
	<g>
		<path fill="#FFFFFF" d="M105.395,119.803c0.378-2.638,0.754-10.634,1.131-13.271c2.466-1.588,4.25-3.916,4.4-5.86
			c0.296-2.447,0.584-4.895,0.862-7.355c0.345,0.362,0.802,0.617,1.332,0.678c1.176,0.116,2.224-0.741,2.343-1.911l1.174-11.318
			c0.12-1.171-0.731-2.217-1.901-2.335c-0.443-0.051-0.87,0.049-1.243,0.25c0.253-2.159,0.505-4.298,0.747-6.458
			c0.197-2.956,1.653-10.82-4.026-15.896c-8.225-8.071-26.312-8.071-34.528,0C70,61.401,71.46,69.265,71.658,72.221
			c0.249,2.16,0.504,4.298,0.747,6.458c-0.36-0.201-0.8-0.301-1.244-0.25c-1.161,0.118-2.021,1.164-1.896,2.335l1.169,11.318
			c0.115,1.17,1.161,2.027,2.341,1.911c0.528-0.061,0.984-0.315,1.328-0.678c0.281,2.461,0.568,4.908,0.858,7.355
			c0.17,1.944,1.948,4.272,4.418,5.86c0.367,2.638,0.748,10.629,1.114,13.271l11.416,10.128L105.395,119.803z"/>
		<path fill="none" stroke="#484F59" stroke-width="7" stroke-linecap="round" stroke-linejoin="round" stroke-miterlimit="10" d="
			M105.395,119.803c0.378-2.638,0.754-10.634,1.131-13.271c2.466-1.588,4.25-3.916,4.4-5.86c0.296-2.447,0.584-4.895,0.862-7.355
			c0.345,0.362,0.802,0.617,1.332,0.678c1.176,0.116,2.224-0.741,2.343-1.911l1.174-11.318c0.12-1.171-0.731-2.217-1.901-2.335
			c-0.443-0.051-0.87,0.049-1.243,0.25c0.253-2.159,0.505-4.298,0.747-6.458c0.197-2.956,1.653-10.82-4.026-15.896
			c-8.225-8.071-26.312-8.071-34.528,0C70,61.401,71.46,69.265,71.658,72.221c0.249,2.16,0.504,4.298,0.747,6.458
			c-0.36-0.201-0.8-0.301-1.244-0.25c-1.161,0.118-2.021,1.164-1.896,2.335l1.169,11.318c0.115,1.17,1.161,2.027,2.341,1.911
			c0.528-0.061,0.984-0.315,1.328-0.678c0.281,2.461,0.568,4.908,0.858,7.355c0.17,1.944,1.948,4.272,4.418,5.86
			c0.367,2.638,0.748,10.629,1.114,13.271l11.416,10.128L105.395,119.803z"/>
		<polyline fill="none" stroke="#484F59" stroke-width="7" stroke-miterlimit="10" points="98.307,110.782 88.07,110.782 
			79.06,106.28 		"/>
	</g>
</g>
</svg>
