<?xml version="1.0" encoding="utf-8"?>
<!-- Generator: Adobe Illustrator 16.0.0, SVG Export Plug-In . SVG Version: 6.00 Build 0)  -->
<!DOCTYPE svg PUBLIC "-//W3C//DTD SVG 1.1 Basic//EN" "http://www.w3.org/Graphics/SVG/1.1/DTD/svg11-basic.dtd">
<svg version="1.1" baseProfile="basic" id="Слой_1"
	 xmlns="http://www.w3.org/2000/svg" xmlns:xlink="http://www.w3.org/1999/xlink" x="0px" y="0px" width="150px" height="150px"
	 viewBox="0 0 150 150" xml:space="preserve">
<polygon fill="#7BBA52" stroke="#484F59" stroke-width="7" stroke-miterlimit="10" points="16.833,82.75 14.8,113.948 
	24.08,113.948 33.361,113.948 31.322,82.75 "/>
<polygon fill="#7BBA52" stroke="#484F59" stroke-width="7" stroke-miterlimit="10" points="50.948,82.75 48.908,113.948 
	58.193,113.948 67.472,113.948 65.436,82.75 "/>
<polygon fill="#7BBA52" stroke="#484F59" stroke-width="7" stroke-miterlimit="10" points="85.063,82.75 83.02,113.948 
	92.302,113.948 101.586,113.948 99.544,82.75 "/>
<polygon fill="#7BBA52" stroke="#484F59" stroke-width="7" stroke-miterlimit="10" points="119.172,82.75 117.135,113.948 
	126.416,113.948 135.695,113.948 133.656,82.75 "/>
<g>
	<g>
		
			<rect x="14.982" y="64.685" fill="none" stroke="#484F59" stroke-width="5" stroke-linecap="round" stroke-linejoin="round" stroke-miterlimit="10" width="18.193" height="12.871"/>
	</g>
	<g>
		
			<rect x="49.095" y="64.685" fill="none" stroke="#484F59" stroke-width="5" stroke-linecap="round" stroke-linejoin="round" stroke-miterlimit="10" width="18.194" height="12.871"/>
	</g>
	<g>
		
			<rect x="83.207" y="64.685" fill="none" stroke="#484F59" stroke-width="5" stroke-linecap="round" stroke-linejoin="round" stroke-miterlimit="10" width="18.193" height="12.871"/>
	</g>
	<g>
		
			<rect x="117.32" y="64.685" fill="none" stroke="#484F59" stroke-width="5" stroke-linecap="round" stroke-linejoin="round" stroke-miterlimit="10" width="18.192" height="12.871"/>
	</g>
</g>
<rect x="7.025" y="122.355" fill="none" stroke="#484F59" stroke-width="7" stroke-linecap="round" stroke-linejoin="round" stroke-miterlimit="10" width="136.444" height="17.623"/>
<polygon fill="none" stroke="#484F59" stroke-width="7" stroke-linecap="round" stroke-linejoin="round" stroke-miterlimit="10" points="
	75.248,9.493 111.066,32.952 146.882,56.404 75.248,56.404 3.615,56.404 39.429,32.952 "/>
<path fill="#7BBA52" stroke="#484F59" stroke-width="5" stroke-linejoin="round" stroke-miterlimit="10" d="M75.248,21.398
	l38.243,25.046H37.002L75.248,21.398z"/>
</svg>
