<?xml version="1.0" encoding="utf-8"?>
<!-- Generator: Adobe Illustrator 16.0.0, SVG Export Plug-In . SVG Version: 6.00 Build 0)  -->
<!DOCTYPE svg PUBLIC "-//W3C//DTD SVG 1.1//EN" "http://www.w3.org/Graphics/SVG/1.1/DTD/svg11.dtd">
<svg version="1.1" id="Слой_1" xmlns="http://www.w3.org/2000/svg" xmlns:xlink="http://www.w3.org/1999/xlink" x="0px" y="0px"
	 width="150px" height="150px" viewBox="0 0 150 150" enable-background="new 0 0 150 150" xml:space="preserve">
<circle fill="#B7BEC0" stroke="#484F59" stroke-width="7" stroke-linejoin="round" cx="75" cy="75" r="62.5"/>
<circle fill="#F1FAFC" stroke="#484F59" stroke-width="4" stroke-linejoin="round" cx="75" cy="75" r="45.958"/>
<line fill="none" stroke="#484F59" stroke-width="7" stroke-linejoin="round" x1="75" y1="12.5" x2="75" y2="22.248"/>
<line fill="none" stroke="#484F59" stroke-width="7" stroke-linejoin="round" x1="75" y1="127.181" x2="75" y2="136.93"/>
<line fill="none" stroke="#484F59" stroke-width="7" stroke-linejoin="round" x1="137.215" y1="74.715" x2="127.466" y2="74.715"/>
<line fill="none" stroke="#484F59" stroke-width="7" stroke-linejoin="round" x1="22.533" y1="74.715" x2="12.785" y2="74.715"/>
<line fill="none" stroke="#484F59" stroke-width="7" stroke-linejoin="round" x1="118.992" y1="30.723" x2="112.1" y2="37.615"/>
<line fill="none" stroke="#484F59" stroke-width="7" stroke-linejoin="round" x1="37.901" y1="111.814" x2="31.007" y2="118.708"/>
<line fill="none" stroke="#484F59" stroke-width="7" stroke-linejoin="round" x1="118.992" y1="118.708" x2="112.1" y2="111.814"/>
<line fill="none" stroke="#484F59" stroke-width="7" stroke-linejoin="round" x1="37.9" y1="37.615" x2="31.007" y2="30.723"/>
<rect x="94.413" y="22.248" transform="matrix(0.707 0.7072 -0.7072 0.707 66.2876 -54.0807)" fill="#7BBA52" stroke="#484F59" stroke-width="5" stroke-linecap="round" stroke-linejoin="round" width="8" height="61.427"/>
<rect x="70.963" y="73.278" transform="matrix(-1 0.0037 -0.0037 -1 150.2772 188.2754)" fill="#7BBA52" stroke="#484F59" stroke-width="5" stroke-linecap="round" stroke-linejoin="round" width="8" height="41.998"/>
<circle fill="#7BBA52" stroke="#484F59" stroke-width="7" stroke-linecap="round" stroke-linejoin="round" cx="75" cy="75" r="11.249"/>
</svg>
