<?xml version="1.0" encoding="utf-8"?>
<!-- Generator: Adobe Illustrator 16.0.0, SVG Export Plug-In . SVG Version: 6.00 Build 0)  -->
<!DOCTYPE svg PUBLIC "-//W3C//DTD SVG 1.1//EN" "http://www.w3.org/Graphics/SVG/1.1/DTD/svg11.dtd">
<svg version="1.1" id="Слой_1" xmlns="http://www.w3.org/2000/svg" xmlns:xlink="http://www.w3.org/1999/xlink" x="0px" y="0px"
	 width="150px" height="150px" viewBox="0 0 150 150" enable-background="new 0 0 150 150" xml:space="preserve">
<polygon fill="#7BBA52" stroke="#484F59" stroke-width="7" stroke-linecap="round" stroke-linejoin="round" points="123.379,51.479 
	98.631,26.729 108.865,16.495 142.344,8.472 133.615,41.243 "/>
<rect x="70.111" y="29.414" transform="matrix(0.7071 0.7071 -0.7071 0.7071 69.8555 -43.6451)" fill="none" stroke="#484F59" stroke-width="7" stroke-linecap="round" stroke-linejoin="round" stroke-miterlimit="10" width="35" height="66.17"/>
<rect x="42.062" y="80.314" transform="matrix(0.7071 0.7071 -0.7071 0.7071 81.4744 -15.595)" fill="#B7BEC0" stroke="#484F59" stroke-width="6" stroke-linejoin="round" width="35" height="20.474"/>
<polygon fill="#B7BEC0" stroke="#484F59" stroke-width="6" stroke-linejoin="round" points="64.698,110.164 79.546,125.014 
	94.02,110.537 88.48,86.377 "/>
<polygon fill="#B7BEC0" stroke="#484F59" stroke-width="6" stroke-linejoin="round" points="39.878,85.344 25.029,70.493 
	39.505,56.018 63.665,61.557 "/>
<line fill="none" stroke="#484F59" stroke-width="6" stroke-linejoin="round" x1="25.029" y1="70.493" x2="8.633" y2="86.892"/>
<line fill="none" stroke="#484F59" stroke-width="6" stroke-linejoin="round" x1="79.662" y1="124.112" x2="63.267" y2="140.509"/>
<line fill="none" stroke="#484F59" stroke-width="6" stroke-linejoin="round" x1="52.797" y1="97.246" x2="36.401" y2="113.643"/>
<line fill="none" stroke="#484F59" stroke-width="6" stroke-linejoin="round" x1="39.878" y1="85.344" x2="6.708" y2="118.514"/>
<line fill="none" stroke="#484F59" stroke-width="6" stroke-linejoin="round" x1="65.696" y1="111.162" x2="32.526" y2="144.332"/>
</svg>
