<?xml version="1.0" encoding="utf-8"?>
<!-- Generator: Adobe Illustrator 16.0.0, SVG Export Plug-In . SVG Version: 6.00 Build 0)  -->
<!DOCTYPE svg PUBLIC "-//W3C//DTD SVG 1.1//EN" "http://www.w3.org/Graphics/SVG/1.1/DTD/svg11.dtd">
<svg version="1.1" id="Слой_1" xmlns="http://www.w3.org/2000/svg" xmlns:xlink="http://www.w3.org/1999/xlink" x="0px" y="0px"
	 width="150px" height="150px" viewBox="239 0 150 150" enable-background="new 239 0 150 150" xml:space="preserve">
<circle fill="#B7BEC0" stroke="#484F59" stroke-width="7" stroke-linejoin="round" cx="74.122" cy="74.124" r="36"/>
<circle fill="#F1FAFC" stroke="#484F59" stroke-width="4" stroke-linejoin="round" cx="74.122" cy="74.124" r="26.472"/>
<path fill="#7BBA52" stroke="#484F59" stroke-width="5" stroke-linecap="round" stroke-linejoin="round" d="M89.127,20.97v97.034
	h-23.57V53.508l-16.631,7.52V41.215L89.127,20.97z"/>
<circle fill="#B7BEC0" stroke="#484F59" stroke-width="7" stroke-linejoin="round" cx="74.122" cy="308.124" r="36"/>
<circle fill="#F1FAFC" stroke="#484F59" stroke-width="4" stroke-linejoin="round" cx="74.122" cy="308.124" r="26.472"/>
<circle fill="#B7BEC0" stroke="#484F59" stroke-width="7" stroke-linejoin="round" cx="313.122" cy="74.124" r="36"/>
<circle fill="#F1FAFC" stroke="#484F59" stroke-width="4" stroke-linejoin="round" cx="313.122" cy="74.124" r="26.472"/>
<circle fill="#B7BEC0" stroke="#484F59" stroke-width="7" stroke-linejoin="round" cx="313.122" cy="308.124" r="36"/>
<circle fill="#F1FAFC" stroke="#484F59" stroke-width="4" stroke-linejoin="round" cx="313.122" cy="308.124" r="26.472"/>
<path fill="#7BBA52" stroke="#484F59" stroke-width="5" stroke-linecap="round" stroke-linejoin="round" d="M343.789,117.643
	h-66.666v-13.016l39.19-45.407c2.313-2.604,4.338-5.641,4.338-8.678c0-3.471-2.314-7.664-9.979-7.664
	c-8.387,0-10.847,6.073-12.003,12.871l-20.824-3.182c3.037-19.234,15.33-31.236,34.562-31.236c16.775,0,31.381,11.857,31.381,29.211
	c0,9.111-4.193,17.498-9.834,23.717l-20.968,22.557h30.802V117.643z"/>
<path fill="#7BBA52" stroke="#484F59" stroke-width="5" stroke-linecap="round" stroke-linejoin="round" d="M61.035,316.405v-17.786
	h9.69c9.688,0,9.978-8.821,9.978-10.557c0-2.025-2.603-8.531-9.834-8.531c-2.314,0-7.086-0.146-12.87,5.928l-13.595-11.135
	c5.785-8.967,17.21-14.751,30.37-14.027c16.919,0.867,29.211,13.016,28.778,26.754c0,8.098-5.496,14.605-12.438,18.365
	c10.557,3.904,16.631,12.579,16.631,22.846c0,19.233-17.499,29.502-36.586,29.502c-13.739,0-25.452-6.507-30.659-17.498
	l14.751-13.016c1.735,3.761,6.653,10.413,15.908,10.413c9.688,0,13.737-5.353,13.737-10.848c0-5.205-4.193-10.41-14.171-10.41
	H61.035z"/>
<path fill="#7BBA52" stroke="#484F59" stroke-width="5" stroke-linecap="round" stroke-linejoin="round" d="M349.747,334.454
	h-11.278v21.981h-23.428v-21.981h-46.709l40.924-72.884h29.213v53.939h11.278V334.454z M298.121,315.51h16.92v-31.669
	L298.121,315.51z"/>
</svg>
