<?xml version="1.0" encoding="utf-8"?>
<!-- Generator: Adobe Illustrator 16.0.0, SVG Export Plug-In . SVG Version: 6.00 Build 0)  -->
<!DOCTYPE svg PUBLIC "-//W3C//DTD SVG 1.1//EN" "http://www.w3.org/Graphics/SVG/1.1/DTD/svg11.dtd">
<svg version="1.1" id="Слой_1" xmlns="http://www.w3.org/2000/svg" xmlns:xlink="http://www.w3.org/1999/xlink" x="0px" y="0px"
	 width="150px" height="150px" viewBox="0 0 150 150" enable-background="new 0 0 150 150" xml:space="preserve">
<rect x="9.567" y="27.253" fill="#B7BEC0" stroke="#484F59" stroke-width="6" stroke-linejoin="round" width="129.978" height="90.853"/>
<g>
	<path fill="#FFFFFF" stroke="#484F59" stroke-width="7" stroke-linejoin="round" d="M65.334,20.068H21.102v78.78h44.232
		c5.242,0,9.484,4.246,9.484,9.484v-78.78C74.818,24.314,70.576,20.068,65.334,20.068z"/>
	<path fill="#FFFFFF" stroke="#484F59" stroke-width="7" stroke-linejoin="round" d="M83.779,20.068h42.818v78.78H83.779
		c-5.238,0-9.486,4.246-9.486,9.484v-78.78C74.293,24.314,78.541,20.068,83.779,20.068z"/>
</g>
<g>
	<line fill="none" stroke="#484F59" stroke-width="6" stroke-linejoin="round" x1="32.509" y1="32.572" x2="50.916" y2="32.572"/>
	<line fill="none" stroke="#484F59" stroke-width="6" stroke-linejoin="round" x1="32.509" y1="43.32" x2="63.514" y2="43.32"/>
	<line fill="none" stroke="#484F59" stroke-width="6" stroke-linejoin="round" x1="32.509" y1="52.95" x2="63.514" y2="52.95"/>
	<line fill="none" stroke="#484F59" stroke-width="6" stroke-linejoin="round" x1="32.509" y1="62.438" x2="54.649" y2="62.438"/>
</g>
<g>
	<polygon fill="#7BBA52" stroke="#484F59" stroke-width="4" stroke-linecap="round" stroke-linejoin="round" points="
		140.653,107.351 95.979,107.351 95.979,135.962 125.54,135.962 125.54,143.552 133.13,135.962 140.653,135.962 	"/>
</g>
<g>
	<polygon fill="#FFFFFF" stroke="#484F59" stroke-width="3" stroke-miterlimit="10" points="74.693,87.007 130.356,87.007 
		130.356,126.542 95.571,126.542 85.085,137.028 85.085,126.542 74.693,126.542 	"/>
	<g>
		<line fill="#BAE5F8" stroke="#484F59" stroke-width="3" x1="120.271" y1="99.642" x2="84.773" y2="99.642"/>
		<line fill="#BAE5F8" stroke="#484F59" stroke-width="3" x1="120.271" y1="107.401" x2="84.773" y2="107.401"/>
		<line fill="#BAE5F8" stroke="#484F59" stroke-width="3" x1="120.271" y1="115.159" x2="84.773" y2="115.159"/>
	</g>
</g>
</svg>
