<?xml version="1.0" encoding="utf-8"?>
<!-- Generator: Adobe Illustrator 16.0.0, SVG Export Plug-In . SVG Version: 6.00 Build 0)  -->
<!DOCTYPE svg PUBLIC "-//W3C//DTD SVG 1.1//EN" "http://www.w3.org/Graphics/SVG/1.1/DTD/svg11.dtd">
<svg version="1.1" id="Слой_1" xmlns="http://www.w3.org/2000/svg" xmlns:xlink="http://www.w3.org/1999/xlink" x="0px" y="0px"
	 width="150px" height="150px" viewBox="0 0 150 150" enable-background="new 0 0 150 150" xml:space="preserve">
<circle fill="#B7BEC0" stroke="#484F59" stroke-width="7" stroke-linejoin="round" cx="-189" cy="77.504" r="62.5"/>
<circle fill="#F1FAFC" stroke="#484F59" stroke-width="4" stroke-linejoin="round" cx="-189" cy="77.504" r="45.958"/>
<line fill="none" stroke="#484F59" stroke-width="7" stroke-linejoin="round" x1="-189" y1="15.004" x2="-189" y2="24.752"/>
<line fill="none" stroke="#484F59" stroke-width="7" stroke-linejoin="round" x1="-189" y1="129.686" x2="-189" y2="139.434"/>
<line fill="none" stroke="#484F59" stroke-width="7" stroke-linejoin="round" x1="-126.785" y1="77.219" x2="-136.534" y2="77.219"/>
<line fill="none" stroke="#484F59" stroke-width="7" stroke-linejoin="round" x1="-241.467" y1="77.219" x2="-251.215" y2="77.219"/>
<line fill="none" stroke="#484F59" stroke-width="7" stroke-linejoin="round" x1="-145.008" y1="33.227" x2="-151.9" y2="40.119"/>
<line fill="none" stroke="#484F59" stroke-width="7" stroke-linejoin="round" x1="-226.099" y1="114.318" x2="-232.993" y2="121.212"/>
<line fill="none" stroke="#484F59" stroke-width="7" stroke-linejoin="round" x1="-145.008" y1="121.212" x2="-151.9" y2="114.318"/>
<line fill="none" stroke="#484F59" stroke-width="7" stroke-linejoin="round" x1="-226.1" y1="40.119" x2="-232.993" y2="33.227"/>
<rect x="-169.589" y="24.751" transform="matrix(-0.707 -0.7072 0.7072 -0.707 -321.8872 -22.4253)" fill="#7BBA52" stroke="#484F59" stroke-width="5" stroke-linecap="round" stroke-linejoin="round" width="8" height="61.426"/>
<rect x="-193.035" y="75.78" transform="matrix(1 -0.0037 0.0037 1 -0.3557 -0.6916)" fill="#7BBA52" stroke="#484F59" stroke-width="5" stroke-linecap="round" stroke-linejoin="round" width="8" height="41.998"/>
<circle fill="#7BBA52" stroke="#484F59" stroke-width="7" stroke-linecap="round" stroke-linejoin="round" cx="-189" cy="77.504" r="11.249"/>
<rect x="10.567" y="24.253" fill="#B7BEC0" stroke="#484F59" stroke-width="6" stroke-linejoin="round" width="129.978" height="90.853"/>
<g>
	<path fill="#FFFFFF" stroke="#484F59" stroke-width="7" stroke-linejoin="round" d="M66.334,17.068H22.102v78.78h44.232
		c5.242,0,9.484,4.247,9.484,9.485v-78.78C75.818,21.315,71.576,17.068,66.334,17.068z"/>
	<path fill="#FFFFFF" stroke="#484F59" stroke-width="7" stroke-linejoin="round" d="M84.779,17.068h42.818v78.78H84.779
		c-5.238,0-9.486,4.247-9.486,9.485v-78.78C75.293,21.315,79.541,17.068,84.779,17.068z"/>
</g>
<g>
	<g>
		<path fill="#7BBA52" stroke="#484F59" stroke-width="4" stroke-linecap="round" stroke-linejoin="round" d="M102.98,27.654v6.372
			h9.477v-6.372c0-0.42-0.463-0.756-1.041-0.756h-7.389C103.447,26.897,102.98,27.233,102.98,27.654z"/>
		
			<rect x="102.98" y="34.025" fill="#7BBA52" stroke="#484F59" stroke-width="4" stroke-linecap="round" stroke-linejoin="round" width="9.477" height="90.017"/>
	</g>
	<path fill="#7BBA52" stroke="#484F59" stroke-width="4" stroke-linecap="round" stroke-linejoin="round" d="M107.725,123.24
		c-1.688,0-3.287,0.246-4.734,0.681l4.734,12.289l4.728-12.289C111.003,123.486,109.411,123.24,107.725,123.24z"/>
	<g>
		
			<rect x="102.945" y="33.831" fill="#7BBA52" stroke="#484F59" stroke-width="4" stroke-linecap="round" stroke-linejoin="round" width="9.604" height="8.16"/>
	</g>
	<path fill="#7BBA52" stroke="#484F59" stroke-width="4" stroke-linecap="round" stroke-linejoin="round" d="M109.26,132.193
		c-0.476-0.038-0.955-0.072-1.455-0.072c-0.556,0-1.102,0.033-1.632,0.093l1.552,3.996L109.26,132.193z"/>
</g>
<g>
	<line fill="none" stroke="#484F59" stroke-width="6" stroke-linejoin="round" x1="33.509" y1="29.572" x2="51.916" y2="29.572"/>
	<line fill="none" stroke="#484F59" stroke-width="6" stroke-linejoin="round" x1="33.509" y1="40.321" x2="64.514" y2="40.321"/>
	<line fill="none" stroke="#484F59" stroke-width="6" stroke-linejoin="round" x1="33.509" y1="49.95" x2="64.514" y2="49.95"/>
	<line fill="none" stroke="#484F59" stroke-width="6" stroke-linejoin="round" x1="33.509" y1="59.437" x2="55.649" y2="59.437"/>
</g>
</svg>
