<?xml version="1.0" encoding="utf-8"?>
<!-- Generator: Adobe Illustrator 16.0.0, SVG Export Plug-In . SVG Version: 6.00 Build 0)  -->
<!DOCTYPE svg PUBLIC "-//W3C//DTD SVG 1.1//EN" "http://www.w3.org/Graphics/SVG/1.1/DTD/svg11.dtd">
<svg version="1.1" id="Слой_1" xmlns="http://www.w3.org/2000/svg" xmlns:xlink="http://www.w3.org/1999/xlink" x="0px" y="0px"
	 width="150px" height="150px" viewBox="0 0 150 150" enable-background="new 0 0 150 150" xml:space="preserve">
<g>
	<g>
		<g>
			<polyline fill="none" stroke="#484F59" stroke-width="3" points="136.007,87.929 144.012,79.919 136.007,71.903 			"/>
			<line fill="none" stroke="#484F59" stroke-width="3" x1="141.837" y1="79.919" x2="117.063" y2="79.92"/>
		</g>
		<g>
			<polyline fill="none" stroke="#484F59" stroke-width="3" points="13.046,71.903 5.045,79.92 13.046,87.927 			"/>
			<line fill="none" stroke="#484F59" stroke-width="3" x1="7.221" y1="79.92" x2="31.992" y2="79.916"/>
		</g>
	</g>
	<g>
		<polyline fill="none" stroke="#484F59" stroke-width="3" points="82.534,18.433 74.524,10.431 66.518,18.433 		"/>
		<line fill="none" stroke="#484F59" stroke-width="3" x1="74.524" y1="12.606" x2="74.527" y2="61.685"/>
	</g>
	<g>
		<g>
			<polyline fill="none" stroke="#484F59" stroke-width="3" points="123.833,41.932 123.831,30.611 112.512,30.607 			"/>
			<line fill="none" stroke="#484F59" stroke-width="3" x1="122.291" y1="32.148" x2="104.605" y2="49.839"/>
		</g>
		<g>
			<polyline fill="none" stroke="#484F59" stroke-width="3" points="25.219,117.904 25.224,129.227 36.544,129.228 			"/>
			<line fill="none" stroke="#484F59" stroke-width="3" x1="26.762" y1="127.687" x2="44.447" y2="109.996"/>
		</g>
	</g>
	<g>
		<g>
			<polyline fill="none" stroke="#484F59" stroke-width="3" points="112.509,129.227 123.831,129.226 123.833,117.904 			"/>
			<line fill="none" stroke="#484F59" stroke-width="3" x1="122.294" y1="127.687" x2="104.603" y2="109.997"/>
		</g>
		<g>
			<polyline fill="none" stroke="#484F59" stroke-width="3" points="36.544,30.607 25.222,30.612 25.219,41.932 			"/>
			<line fill="none" stroke="#484F59" stroke-width="3" x1="26.759" y1="32.149" x2="44.45" y2="49.835"/>
		</g>
	</g>
</g>
<g>
	<g>
		<path fill="#FFFFFF" stroke="#484F59" stroke-width="7" stroke-linecap="round" stroke-linejoin="round" d="M112.186,98.87
			l2.809-2.808c10.215-10.215,10.215-26.775,0-36.989l-0.384-0.386c-10.213-10.214-26.775-10.214-36.991,0l-2.808,2.808
			l-2.809-2.808c-10.213-10.214-26.777-10.214-36.991,0l-0.387,0.386c-10.212,10.213-10.212,26.774,0,36.989l2.808,2.808
			l37.378,37.379L112.186,98.87z"/>
	</g>
	<g>
		<g>
			<path fill="none" stroke="#7BBA52" stroke-width="8" stroke-linecap="round" stroke-linejoin="round" d="M42.129,87.798
				c-6.034-6.037-6.034-15.861,0.002-21.9l0.361-0.36c2.95-2.948,6.838-4.559,10.975-4.559"/>
		</g>
	</g>
</g>
</svg>
