<?xml version="1.0" encoding="utf-8"?>
<!-- Generator: Adobe Illustrator 16.0.0, SVG Export Plug-In . SVG Version: 6.00 Build 0)  -->
<!DOCTYPE svg PUBLIC "-//W3C//DTD SVG 1.1//EN" "http://www.w3.org/Graphics/SVG/1.1/DTD/svg11.dtd">
<svg version="1.1" id="Слой_1" xmlns="http://www.w3.org/2000/svg" xmlns:xlink="http://www.w3.org/1999/xlink" x="0px" y="0px"
	 width="150px" height="150px" viewBox="0 0 150 150" enable-background="new 0 0 150 150" xml:space="preserve">
<path fill="#FFFFFF" stroke="#484F59" stroke-width="7" stroke-linecap="round" stroke-linejoin="round" d="M125.816,5.5H37.994
	c-7.043,0-12.759,5.643-12.899,12.648H25.08v100.9h0.038c-0.015-0.243-0.038-0.483-0.038-0.729c0-7.133,5.782-12.913,12.914-12.913
	h87.822V5.5z"/>
<g>
	<path fill="#FFFFFF" stroke="#484F59" stroke-width="7" stroke-linejoin="round" d="M125.816,105.404h-24.953H37.994
		c-7.132,0-12.914,5.781-12.914,12.914c0,7.132,5.782,12.912,12.914,12.912h62.869h24.953V105.404z"/>
</g>
<polygon fill="#7BBA52" stroke="#484F59" stroke-width="5" stroke-linecap="round" stroke-linejoin="round" points="63.149,144.539 
	53.78,138.598 44.417,144.539 44.417,122.372 53.78,122.372 63.149,122.372 "/>
<line fill="none" stroke="#484F59" stroke-width="3" x1="101.552" y1="113.906" x2="125.82" y2="113.906"/>
<line fill="none" stroke="#484F59" stroke-width="3" x1="67.728" y1="46.258" x2="91.996" y2="46.258"/>
<line fill="none" stroke="#484F59" stroke-width="3" x1="58.87" y1="55.082" x2="100.854" y2="55.082"/>
<line fill="none" stroke="#484F59" stroke-width="3" x1="37.032" y1="121.994" x2="125.82" y2="121.994"/>
<line fill="none" stroke="#484F59" stroke-width="3" x1="37.032" y1="104.604" x2="37.032" y2="6.745"/>
</svg>
