<?xml version="1.0" encoding="utf-8"?>
<!-- Generator: Adobe Illustrator 16.0.0, SVG Export Plug-In . SVG Version: 6.00 Build 0)  -->
<!DOCTYPE svg PUBLIC "-//W3C//DTD SVG 1.1//EN" "http://www.w3.org/Graphics/SVG/1.1/DTD/svg11.dtd">
<svg version="1.1" id="Слой_1" xmlns="http://www.w3.org/2000/svg" xmlns:xlink="http://www.w3.org/1999/xlink" x="0px" y="0px"
	 width="150px" height="150px" viewBox="0 0 150 150" enable-background="new 0 0 150 150" xml:space="preserve">
<circle fill="#B7BEC0" stroke="#484F59" stroke-width="7" stroke-linejoin="round" cx="74.865" cy="77.812" r="36"/>
<circle fill="#F1FAFC" stroke="#484F59" stroke-width="4" stroke-linejoin="round" cx="74.865" cy="77.812" r="26.472"/>
<path fill="#7BBA52" stroke="#484F59" stroke-width="5" stroke-linecap="round" stroke-linejoin="round" d="M105.532,121.331H38.866
	v-13.016l39.189-45.407c2.313-2.604,4.339-5.641,4.339-8.678c0-3.471-2.314-7.664-9.979-7.664c-8.387,0-10.847,6.073-12.003,12.871
	l-20.823-3.182C42.625,37.021,54.918,25.02,74.15,25.02c16.774,0,31.381,11.857,31.381,29.211c0,9.111-4.193,17.498-9.834,23.717
	l-20.968,22.558h30.802L105.532,121.331L105.532,121.331z"/>
</svg>
