<?xml version="1.0" encoding="utf-8"?>
<!-- Generator: Adobe Illustrator 16.0.0, SVG Export Plug-In . SVG Version: 6.00 Build 0)  -->
<!DOCTYPE svg PUBLIC "-//W3C//DTD SVG 1.1//EN" "http://www.w3.org/Graphics/SVG/1.1/DTD/svg11.dtd">
<svg version="1.1" id="Слой_1" xmlns="http://www.w3.org/2000/svg" xmlns:xlink="http://www.w3.org/1999/xlink" x="0px" y="0px"
	 width="150px" height="150px" viewBox="0 0 150 150" enable-background="new 0 0 150 150" xml:space="preserve">
<circle fill="#B7BEC0" stroke="#484F59" stroke-width="7" stroke-linejoin="round" cx="72.865" cy="74.383" r="36"/>
<circle fill="#F1FAFC" stroke="#484F59" stroke-width="4" stroke-linejoin="round" cx="72.865" cy="74.383" r="26.472"/>
<path fill="#7BBA52" stroke="#484F59" stroke-width="5" stroke-linecap="round" stroke-linejoin="round" d="M59.778,82.663V64.878
	h9.69c9.688,0,9.978-8.821,9.978-10.557c0-2.025-2.604-8.531-9.834-8.531c-2.314,0-7.086-0.146-12.87,5.928L43.147,40.583
	c5.785-8.967,17.21-14.752,30.37-14.027c16.919,0.867,29.21,13.016,28.778,26.754c0,8.098-5.495,14.605-12.438,18.365
	c10.558,3.904,16.632,12.579,16.632,22.846c0,19.233-17.499,29.502-36.586,29.502c-13.739,0-25.452-6.507-30.659-17.498
	l14.751-13.016c1.735,3.761,6.653,10.413,15.908,10.413c9.688,0,13.737-5.353,13.737-10.849c0-5.205-4.193-10.41-14.171-10.41
	H59.778z"/>
</svg>
