<?xml version="1.0" encoding="utf-8"?>
<!-- Generator: Adobe Illustrator 16.0.0, SVG Export Plug-In . SVG Version: 6.00 Build 0)  -->
<!DOCTYPE svg PUBLIC "-//W3C//DTD SVG 1.1 Basic//EN" "http://www.w3.org/Graphics/SVG/1.1/DTD/svg11-basic.dtd">
<svg version="1.1" baseProfile="basic" id="Слой_1"
	 xmlns="http://www.w3.org/2000/svg" xmlns:xlink="http://www.w3.org/1999/xlink" x="0px" y="0px" width="400px" height="400px"
	 viewBox="0 0 400 400" xml:space="preserve">
<g>
	<g>
		<g>
			<path fill="#484F59" d="M312.64,398.961H148.948v-72.139H94.346c-23.51,0-42.637-19.129-42.637-42.641v-50.109H15.611
				l48.747-84.412c-0.077-1.921-0.113-3.53-0.113-5.08C64.245,64.859,129.112,0,208.845,0c45.644,0,87.656,20.884,115.265,57.298
				l-7.969,6.042C290.439,29.442,251.332,10,208.845,10c-74.218,0-134.6,60.373-134.6,134.581c0,1.765,0.052,3.64,0.167,6.079
				l0.07,1.465l-41.544,71.947h28.771v60.109c0,17.998,14.641,32.641,32.637,32.641h64.603v72.139H302.64V241.107l1.461-1.463
				c25.354-25.402,39.317-59.163,39.317-95.063h10c0,37.875-14.464,73.53-40.778,100.644V398.961z"/>
		</g>
	</g>
</g>
<g>
	<g>
		<g>
			<path fill="#484F59" d="M243.808,259.99L243.808,259.99c-1.422,0-2.775-0.605-3.724-1.664l-66.293-73.991l-66.322-73.98
				c-1.316-1.469-1.646-3.575-0.842-5.376c0.804-1.801,2.592-2.961,4.564-2.961h265.25c1.973,0,3.761,1.16,4.565,2.961
				s0.475,3.907-0.843,5.376l-66.324,73.981l-66.309,73.99C246.583,259.385,245.229,259.99,243.808,259.99z M122.39,112.018
				l58.849,65.644l62.57,69.837l62.585-69.836l58.851-65.644H122.39z"/>
		</g>
		<g>
			<path fill="#484F59" d="M243.808,259.99L243.808,259.99c-2.053,0-3.896-1.254-4.65-3.164l-58.452-147.972
				c-0.608-1.54-0.416-3.28,0.516-4.649s2.479-2.188,4.135-2.188h116.932c1.655,0,3.203,0.819,4.135,2.188
				c0.931,1.369,1.124,3.11,0.516,4.649l-29.229,73.981l-29.252,73.992C247.703,258.736,245.859,259.99,243.808,259.99z
				 M192.705,112.018l51.104,129.369l24.601-62.227l26.526-67.143H192.705z"/>
		</g>
	</g>
	<g>
		<g>
			<path fill="#484F59" d="M376.441,112.359h-265.25c-1.908,0-3.65-1.086-4.49-2.8c-0.839-1.714-0.63-3.756,0.54-5.265
				l36.485-47.031c0.947-1.221,2.406-1.935,3.951-1.935h192.277c1.545,0,3.004,0.714,3.95,1.935l36.486,47.031
				c1.17,1.508,1.38,3.55,0.54,5.265C380.092,111.272,378.35,112.359,376.441,112.359z M121.398,102.359h244.836l-28.729-37.031
				H150.127L121.398,102.359z"/>
		</g>
		<g>
			<path fill="#484F59" d="M302.287,112.359H185.355l-3.154-8.88l58.453-47.503l6.306,0l58.479,47.503L302.287,112.359z
				 M199.436,102.359h88.766l-44.393-36.061L199.436,102.359z"/>
		</g>
		<g>
			<path fill="#484F59" d="M184.877,112.359h-73.686c-1.908,0-3.65-1.086-4.49-2.8c-0.839-1.714-0.63-3.756,0.54-5.265
				l36.485-47.031c0.947-1.221,2.406-1.935,3.951-1.935h0.113c1.531,0,2.979,0.702,3.927,1.904l37.086,47.031
				c1.187,1.504,1.409,3.554,0.573,5.278S186.793,112.359,184.877,112.359z M121.398,102.359h53.169l-26.802-33.988L121.398,102.359
				z"/>
		</g>
		<g>
			<path fill="#484F59" d="M376.441,112.359h-73.677c-1.916,0-3.663-1.095-4.499-2.818c-0.836-1.724-0.613-3.774,0.573-5.278
				l37.095-47.031c0.948-1.202,2.395-1.904,3.926-1.904c1.545,0,3.1,0.714,4.046,1.935l36.486,47.031
				c1.17,1.508,1.38,3.55,0.54,5.265C380.092,111.272,378.35,112.359,376.441,112.359z M313.076,102.359h53.158l-26.359-33.977
				L313.076,102.359z"/>
		</g>
	</g>
</g>
</svg>
