<?xml version="1.0" encoding="utf-8"?>
<!-- Generator: Adobe Illustrator 16.0.0, SVG Export Plug-In . SVG Version: 6.00 Build 0)  -->
<!DOCTYPE svg PUBLIC "-//W3C//DTD SVG 1.1 Basic//EN" "http://www.w3.org/Graphics/SVG/1.1/DTD/svg11-basic.dtd">
<svg version="1.1" baseProfile="basic" id="Слой_1"
	 xmlns="http://www.w3.org/2000/svg" xmlns:xlink="http://www.w3.org/1999/xlink" x="0px" y="0px" width="400px" height="400px"
	 viewBox="0 0 400 400" xml:space="preserve">
<g>
	<g>
		<path fill="none" stroke="#484F59" stroke-width="10" stroke-miterlimit="10" d="M111.935,183.023
			c-16.385,1.312-31.343,3.586-45.613,6.277c-3.479,0.67-6.645,2.172-9.033,4.07"/>
		<path fill="none" stroke="#484F59" stroke-width="10" stroke-miterlimit="10" d="M225.443,197.191
			c-2.042-3.572-6.836-6.818-12.443-7.891c-16.766-3.162-32.48-5.312-47.819-6.447"/>
		<g>
			<path fill="none" stroke="#484F59" stroke-width="10" stroke-miterlimit="10" d="M163.5,203.65
				c0.748-5.293,1.506-21.316,2.264-26.605c4.945-3.178,8.517-7.846,8.821-11.742c0.588-4.908,1.164-9.806,1.72-14.742
				c0.694,0.729,1.616,1.24,2.676,1.357c2.355,0.234,4.459-1.484,4.69-3.831l2.354-22.687c0.249-2.348-1.461-4.443-3.809-4.678
				c-0.893-0.1-1.743,0.097-2.489,0.503c0.506-4.333,1.01-8.624,1.494-12.94c0.399-5.925,3.316-21.69-8.064-31.865
				c-16.485-16.175-52.739-16.175-69.213,0c-11.392,10.175-8.46,25.94-8.065,31.865c0.498,4.316,1.01,8.607,1.495,12.94
				c-0.721-0.406-1.604-0.603-2.487-0.503c-2.334,0.234-4.053,2.33-3.806,4.678l2.351,22.687c0.227,2.347,2.321,4.065,4.69,3.831
				c1.056-0.117,1.968-0.629,2.655-1.357c0.566,4.937,1.141,9.834,1.717,14.742c0.346,3.896,3.907,8.564,8.861,11.742
				c0.732,5.289,1.499,21.305,2.229,26.605l22.884,20.295L163.5,203.65z"/>
			
				<path fill="none" stroke="#484F59" stroke-width="10" stroke-linecap="round" stroke-linejoin="round" stroke-miterlimit="10" d="
				M163.5,203.65c0.748-5.293,1.506-21.316,2.264-26.605c4.945-3.178,8.517-7.846,8.821-11.742c0.588-4.908,1.164-9.806,1.72-14.742
				c0.694,0.729,1.616,1.24,2.676,1.357c2.355,0.234,4.459-1.484,4.69-3.831l2.354-22.687c0.249-2.348-1.461-4.443-3.809-4.678
				c-0.893-0.1-1.743,0.097-2.489,0.503c0.506-4.333,1.01-8.624,1.494-12.94c0.399-5.925,3.316-21.69-8.064-31.865
				c-16.485-16.175-52.739-16.175-69.213,0c-11.392,10.175-8.46,25.94-8.065,31.865c0.498,4.316,1.01,8.607,1.495,12.94
				c-0.721-0.406-1.604-0.603-2.487-0.503c-2.334,0.234-4.053,2.33-3.806,4.678l2.351,22.687c0.227,2.347,2.321,4.065,4.69,3.831
				c1.056-0.117,1.968-0.629,2.655-1.357c0.566,4.937,1.141,9.834,1.717,14.742c0.346,3.896,3.907,8.564,8.861,11.742
				c0.732,5.289,1.499,21.305,2.229,26.605l22.884,20.295L163.5,203.65z"/>
			<polyline fill="none" stroke="#484F59" stroke-width="10" stroke-miterlimit="10" points="149.293,185.568 128.778,185.568 
				110.708,176.541 			"/>
		</g>
	</g>
	<g>
		<g>
			<g>
				<polyline fill="none" stroke="#484F59" stroke-width="10" stroke-linejoin="round" points="244.73,270.672 213.906,240.064 
					240.847,213.121 271.673,243.73 				"/>
				<g>
					<path fill="none" stroke="#484F59" stroke-width="10" stroke-linejoin="round" d="M231.723,230.951"/>
				</g>
				<path fill="none" stroke="#484F59" stroke-width="10" stroke-linejoin="round" d="M246.779,219.051
					c17.342-23.047,26.702-50.924,26.707-80.188c0-35.707-13.93-69.29-39.26-94.576C208.911,19.001,175.31,5.071,139.62,5.088
					c-35.779-0.008-69.439,13.98-94.749,39.392C19.705,69.791,5.826,103.365,5.839,138.914
					c0.018,73.771,60.063,133.816,133.839,133.768c29.284,0,57.133-9.373,80.155-26.689 M212.619,211.469
					c-19.524,19.609-45.404,30.361-72.954,30.379c-56.796,0.049-102.988-46.131-102.967-102.922
					c0-27.405,10.66-53.211,30.056-72.672c19.472-19.562,45.367-30.328,72.866-30.332c27.483-0.016,53.329,10.674,72.811,30.178
					c19.478,19.455,30.209,45.328,30.234,72.773C242.665,166.25,232.014,192.029,212.619,211.469z"/>
				<polygon fill="none" stroke="#484F59" stroke-width="10" stroke-linejoin="round" points="384.251,344.826 345.616,383.459 
					238.765,276.633 277.419,237.984 				"/>
				<path fill="none" stroke="#484F59" stroke-width="10" stroke-linejoin="round" d="M393.531,354.104
					c0,21.34-17.299,38.639-38.654,38.639c-3.087-3.084-6.177-6.17-9.261-9.283c12.882-12.877,25.763-25.75,38.635-38.633
					C387.346,347.912,390.433,351.004,393.531,354.104z"/>
			</g>
		</g>
	</g>
</g>
</svg>
